<?xml version="1.0" standalone="no"?>
<!DOCTYPE svg PUBLIC "-//W3C//DTD SVG 20010904//EN"
 "http://www.w3.org/TR/2001/REC-SVG-20010904/DTD/svg10.dtd">
<svg version="1.0" xmlns="http://www.w3.org/2000/svg"
 width="1140.000000pt" height="1140.000000pt" viewBox="0 0 1140.000000 1140.000000"
 preserveAspectRatio="xMidYMid meet">
<metadata>
Created by potrace 1.11, written by Peter Selinger 2001-2013
</metadata>
<g transform="translate(0.000000,1140.000000) scale(0.100000,-0.100000)"
fill="#000000" stroke="none">
<path d="M4668 10645 c-2 -2 -41 -6 -88 -9 -47 -4 -105 -9 -130 -11 -117 -14
-223 -28 -305 -41 -49 -8 -103 -17 -120 -20 -111 -18 -383 -88 -595 -152 -352
-108 -820 -331 -1165 -555 -127 -82 -354 -245 -385 -277 -3 -3 -23 -18 -45
-35 -22 -16 -42 -32 -45 -35 -3 -4 -43 -39 -90 -79 -203 -174 -457 -440 -631
-660 -405 -516 -694 -1075 -874 -1694 -31 -105 -85 -325 -100 -404 -15 -81
-55 -336 -60 -388 -4 -33 -9 -73 -11 -90 -13 -112 -19 -265 -19 -495 0 -320
14 -516 50 -739 2 -13 7 -45 11 -70 4 -25 8 -53 10 -61 1 -8 12 -61 23 -117
19 -96 51 -227 84 -353 31 -117 141 -438 176 -515 5 -11 29 -65 52 -120 215
-503 570 -1038 948 -1428 119 -123 259 -259 301 -293 32 -27 88 -75 114 -99 6
-6 54 -44 106 -86 481 -379 1019 -665 1593 -844 65 -20 125 -38 135 -40 10 -2
43 -10 73 -19 46 -14 139 -36 329 -76 70 -15 288 -49 360 -55 36 -4 72 -8 80
-10 45 -12 268 -20 510 -19 151 1 318 1 370 1 1186 -3 1491 0 1615 18 17 2 57
7 90 10 33 3 67 8 75 10 8 2 38 6 65 9 28 3 61 8 75 11 13 2 41 7 62 10 30 5
166 33 330 70 123 27 464 136 616 196 347 137 714 335 1017 546 116 80 328
243 350 267 6 6 39 36 75 66 85 72 180 161 305 290 495 506 884 1136 1120
1810 20 58 38 112 41 120 2 8 19 67 38 130 56 190 121 487 141 646 4 27 8 56
10 64 2 8 7 44 11 80 3 36 8 79 10 95 27 250 26 769 -2 1008 -8 72 -15 123
-19 148 -4 23 -12 83 -20 144 -5 37 -7 50 -40 210 -103 501 -294 1001 -555
1454 -72 124 -201 326 -250 391 -15 19 -55 73 -90 120 -237 317 -554 642 -880
901 -94 74 -325 242 -345 250 -5 2 -48 29 -95 60 -165 108 -420 244 -660 352
-322 144 -836 293 -1205 347 -44 7 -89 14 -100 16 -11 2 -47 6 -80 9 -33 3
-71 7 -85 10 -91 16 -975 26 -1600 18 -41 -1 -211 0 -377 2 -166 1 -303 1
-305 0z m1126 -270 c47 -8 115 -21 150 -29 35 -9 75 -17 87 -20 293 -56 812
-248 1119 -413 309 -167 511 -299 755 -492 279 -221 557 -497 757 -751 23 -30
45 -57 48 -60 4 -3 47 -61 96 -130 384 -534 642 -1106 783 -1730 41 -183 70
-353 86 -510 4 -36 9 -73 11 -83 8 -45 18 -280 18 -457 0 -220 -8 -369 -29
-540 -3 -25 -8 -67 -11 -95 -9 -80 -53 -321 -79 -435 -104 -453 -294 -933
-514 -1302 -9 -14 -33 -55 -54 -90 -214 -360 -517 -729 -847 -1033 -418 -385
-888 -683 -1430 -908 -205 -85 -590 -204 -749 -232 -19 -3 -37 -7 -40 -9 -3
-2 -23 -7 -43 -10 -21 -3 -58 -10 -82 -16 -106 -23 -137 -22 -316 15 -96 20
-186 38 -200 41 -98 20 -490 144 -595 189 -16 7 -70 29 -120 50 -416 173 -844
437 -1220 752 -147 123 -389 362 -510 503 -49 58 -92 107 -95 110 -3 3 -21 25
-40 50 -19 25 -37 47 -40 50 -23 20 -208 289 -313 453 -166 262 -372 722 -472
1052 -49 164 -111 413 -130 525 -3 19 -8 42 -10 50 -2 8 -7 35 -10 60 -3 25
-10 72 -15 105 -5 33 -12 87 -15 120 -4 33 -8 71 -10 85 -24 192 -24 737 0
925 3 17 7 55 10 85 3 30 8 66 10 80 3 14 7 45 10 70 3 25 12 81 20 125 8 44
16 91 19 105 7 40 47 210 62 266 8 28 16 60 19 70 7 35 54 188 84 274 291 849
834 1616 1536 2171 192 152 181 144 310 229 61 39 121 80 135 89 43 30 236
139 347 197 201 104 448 209 673 284 117 39 462 131 540 144 41 7 79 14 129
24 61 13 87 13 175 -3z m-1884 -59 c-180 -69 -461 -199 -590 -273 -19 -11 -69
-40 -110 -63 -142 -81 -538 -351 -570 -389 -3 -3 -23 -20 -45 -36 -69 -51
-266 -227 -370 -331 -236 -235 -379 -402 -558 -653 -92 -130 -185 -271 -228
-346 -112 -197 -149 -266 -199 -370 -185 -385 -317 -781 -399 -1190 -21 -109
-31 -164 -37 -210 -2 -16 -6 -45 -9 -63 -3 -18 -7 -54 -10 -80 -3 -26 -8 -63
-10 -82 -2 -19 -7 -66 -10 -105 -3 -38 -7 -95 -10 -125 -6 -63 -6 -511 -1
-585 2 -27 7 -88 10 -135 4 -47 8 -96 11 -110 2 -14 7 -54 10 -90 4 -35 8 -67
10 -70 1 -3 6 -32 10 -65 10 -89 62 -341 102 -495 127 -494 341 -982 623
-1420 65 -100 224 -327 239 -340 3 -3 26 -32 51 -65 133 -179 448 -506 660
-685 29 -25 58 -50 64 -55 6 -6 60 -49 121 -95 367 -283 786 -524 1190 -684
150 -60 155 -63 55 -40 -36 8 -74 16 -85 19 -63 14 -199 53 -335 97 -416 134
-791 315 -1165 563 -156 103 -346 244 -413 305 -9 9 -51 45 -92 80 -452 391
-843 898 -1118 1450 -84 167 -101 204 -152 330 -12 30 -28 69 -35 85 -30 70
-127 372 -160 501 -36 141 -88 388 -100 479 -4 28 -9 61 -11 75 -2 14 -6 52
-10 85 -3 33 -7 70 -9 83 -26 162 -27 810 0 962 2 14 6 50 9 80 2 30 10 89 16
130 129 848 454 1595 982 2263 40 51 75 94 78 97 3 3 34 39 70 80 83 97 345
359 435 435 39 33 72 63 75 66 3 4 64 53 135 109 155 122 421 299 599 400 110
62 426 220 440 220 3 0 29 11 58 24 153 70 551 200 708 231 14 3 50 12 80 19
90 23 90 17 0 -18z m820 30 c0 -2 -28 -13 -62 -26 -253 -91 -634 -284 -901
-457 -162 -105 -466 -330 -517 -383 -8 -9 -42 -38 -75 -65 -92 -76 -371 -357
-471 -475 -49 -58 -93 -110 -99 -116 -101 -116 -294 -392 -428 -614 -63 -107
-247 -458 -247 -474 0 -3 -11 -29 -24 -58 -63 -137 -144 -358 -201 -543 -26
-83 -89 -327 -99 -378 -2 -12 -7 -33 -10 -47 -3 -14 -8 -38 -11 -55 -5 -32
-22 -123 -30 -164 -2 -14 -7 -47 -11 -75 -3 -28 -7 -62 -9 -76 -2 -14 -7 -54
-10 -90 -4 -36 -9 -72 -10 -80 -24 -133 -24 -711 0 -930 2 -19 7 -66 10 -105
4 -38 8 -76 10 -85 1 -8 6 -40 10 -70 4 -30 9 -64 11 -75 2 -11 11 -58 20
-105 20 -105 18 -96 44 -210 12 -52 23 -103 25 -112 22 -101 130 -436 188
-583 150 -383 358 -761 605 -1100 80 -110 202 -267 222 -285 3 -3 34 -39 70
-80 76 -89 374 -386 449 -449 29 -25 59 -50 65 -56 21 -21 252 -201 321 -250
293 -210 641 -405 955 -535 69 -28 139 -58 157 -66 17 -8 37 -14 44 -14 7 0
10 -2 7 -5 -17 -18 -502 121 -733 210 -187 72 -538 237 -606 286 -15 10 -30
19 -33 19 -18 0 -346 211 -462 297 -233 172 -405 323 -609 533 -81 84 -122
128 -224 245 -75 85 -215 274 -314 423 -198 295 -347 578 -477 907 -60 150
-165 482 -185 583 -2 9 -12 58 -24 107 -26 114 -64 329 -76 430 -3 28 -7 64
-9 80 -6 48 -18 185 -22 255 -5 83 -4 516 1 555 2 17 6 70 9 119 6 83 10 117
21 191 2 17 7 53 10 80 3 28 13 88 22 135 8 47 17 99 20 115 19 127 134 539
190 685 94 246 102 264 201 470 219 457 548 917 919 1284 126 125 275 259 363
327 25 18 47 37 50 40 16 18 205 154 325 234 353 233 747 424 1130 548 111 36
320 96 361 103 12 2 49 10 81 18 66 16 73 17 73 12z m2005 -10 c29 -5 161 -38
280 -70 115 -31 348 -111 450 -155 11 -5 65 -28 120 -51 418 -176 856 -452
1225 -769 201 -173 475 -459 610 -637 25 -32 48 -61 51 -64 37 -32 260 -367
359 -540 135 -235 314 -629 369 -815 7 -22 16 -49 21 -60 23 -55 99 -344 134
-510 31 -150 48 -252 61 -373 4 -29 8 -62 10 -74 2 -11 7 -61 10 -112 4 -50 8
-102 11 -116 5 -33 5 -502 0 -560 -2 -25 -7 -90 -11 -145 -4 -55 -8 -102 -10
-105 -2 -3 -6 -34 -10 -70 -11 -107 -19 -162 -50 -322 -29 -155 -52 -248 -114
-459 -142 -483 -384 -972 -695 -1404 -43 -60 -82 -112 -85 -115 -3 -3 -25 -30
-48 -60 -23 -30 -53 -67 -65 -81 -13 -15 -43 -51 -68 -80 -92 -111 -313 -334
-440 -444 -30 -26 -68 -60 -85 -74 -16 -15 -73 -60 -125 -102 -426 -336 -911
-599 -1421 -769 -156 -53 -396 -120 -476 -134 -71 -13 -87 -15 -73 -10 8 3 67
26 130 51 210 82 364 157 624 302 87 49 267 164 381 245 87 61 319 240 351
270 6 6 40 36 75 66 106 90 369 357 477 483 199 232 399 514 547 772 255 443
476 1035 559 1500 3 17 11 57 17 90 13 68 14 80 23 150 4 28 9 61 11 75 3 14
7 54 11 90 3 36 8 73 10 83 23 122 22 741 -1 937 -3 19 -7 60 -11 90 -10 98
-14 124 -19 155 -2 17 -7 46 -10 65 -92 586 -292 1149 -600 1695 -65 115 -316
490 -345 515 -3 3 -36 44 -73 92 -37 47 -73 92 -79 100 -7 7 -42 47 -77 88
-63 73 -342 355 -412 415 -19 17 -66 57 -104 90 -364 316 -839 606 -1301 795
-82 34 -158 65 -169 71 l-20 9 20 -5 c11 -2 34 -7 50 -9z m783 -7 c242 -58
515 -145 722 -229 145 -59 427 -196 533 -258 48 -29 90 -52 92 -52 13 0 424
-277 445 -300 3 -3 34 -27 70 -55 197 -151 489 -428 645 -610 33 -38 62 -72
65 -75 49 -43 390 -518 423 -590 4 -8 11 -22 17 -30 156 -238 346 -669 475
-1080 43 -134 125 -500 140 -625 4 -27 8 -61 11 -75 2 -14 6 -52 10 -85 3 -33
7 -71 10 -85 26 -159 26 -717 -1 -965 -2 -22 -7 -65 -10 -95 -3 -30 -8 -64
-10 -75 -2 -11 -6 -38 -9 -60 -10 -75 -47 -270 -72 -375 -14 -58 -27 -112 -29
-120 -2 -8 -22 -76 -44 -151 -188 -636 -526 -1247 -980 -1769 -98 -113 -353
-365 -471 -466 -534 -457 -1147 -788 -1805 -974 -105 -30 -124 -35 -170 -44
-11 -3 -51 -12 -89 -21 -37 -9 -71 -14 -74 -10 -3 3 0 5 7 5 44 0 470 192 651
293 375 209 671 421 969 692 174 159 370 367 517 550 527 657 875 1416 1018
2220 3 17 8 39 10 51 2 12 7 45 11 74 4 29 8 62 11 73 2 10 6 45 9 76 4 31 8
67 10 81 2 14 7 63 10 110 4 47 8 101 11 120 5 47 5 498 0 580 -10 164 -25
309 -46 445 -5 33 -12 78 -15 100 -4 22 -18 96 -32 165 -230 1137 -859 2159
-1773 2884 -385 306 -780 536 -1225 716 -66 26 -127 50 -135 53 -38 13 18 5
98 -14z"/>
<path d="M4107 7764 c-427 -55 -726 -308 -831 -706 -69 -259 -51 -556 48 -815
79 -208 210 -418 395 -638 42 -49 86 -101 97 -115 508 -601 604 -718 678 -829
137 -206 189 -372 187 -603 -1 -267 -134 -413 -384 -422 -250 -10 -389 122
-447 424 -15 75 -23 215 -24 402 l-1 158 -65 0 c-36 0 -157 1 -270 1 l-204 1
-8 -28 c-4 -16 -10 -40 -12 -54 -3 -14 -9 -50 -15 -80 -18 -95 -20 -113 -28
-200 -29 -358 30 -617 189 -819 128 -163 370 -286 625 -319 76 -9 393 -9 463
1 321 45 596 223 737 477 94 168 136 355 134 585 -1 103 -2 113 -20 225 -47
287 -232 628 -539 995 -90 107 -96 115 -157 190 -21 28 -42 52 -45 55 -3 3
-48 57 -100 120 -52 63 -97 117 -100 120 -27 23 -343 420 -377 473 -102 157
-142 291 -138 468 6 253 126 385 360 395 212 9 337 -82 410 -296 43 -126 56
-228 61 -470 2 -102 3 -189 4 -195 0 -8 306 -12 509 -6 27 1 29 4 39 64 6 34
21 116 33 182 16 90 22 161 23 285 0 173 -13 268 -56 395 -103 305 -361 509
-720 571 -117 20 -326 24 -451 8z"/>
<path d="M6928 7775 c-2 -2 -41 -6 -88 -10 -236 -20 -472 -127 -627 -284 -150
-153 -260 -390 -317 -686 -39 -205 -41 -274 -41 -1360 1 -883 4 -1097 20
-1195 2 -14 9 -54 14 -90 30 -186 74 -333 146 -486 57 -123 114 -204 204 -295
178 -177 362 -253 626 -258 204 -4 381 59 505 181 87 84 105 108 198 258 12
19 22 28 23 20 1 -23 6 -57 24 -160 9 -52 18 -108 21 -125 6 -39 15 -86 19
-105 2 -8 4 -18 4 -22 1 -5 105 -8 231 -8 l230 0 1 23 c1 25 1 2277 0 2292 -1
7 -179 10 -514 9 l-512 0 -3 -224 c-1 -131 1 -226 7 -229 5 -4 78 -5 163 -5
84 1 160 0 169 -2 14 -4 15 -45 13 -382 -2 -388 -11 -493 -51 -632 -52 -180
-148 -300 -275 -346 -63 -22 -180 -20 -262 6 -154 48 -235 195 -265 480 -5 48
-8 628 -7 1335 3 1349 2 1317 56 1485 41 126 129 221 233 252 23 7 83 12 132
13 76 0 98 -4 145 -26 181 -85 260 -305 263 -736 2 -195 3 -203 22 -204 118
-5 528 0 534 7 5 5 12 27 15 49 3 22 12 81 20 130 22 134 28 197 28 340 1 147
-3 197 -31 322 -81 364 -335 590 -736 653 -61 10 -330 21 -337 15z"/>
</g>
</svg>
